<?xml version="1.0" standalone="no"?>
<!DOCTYPE svg PUBLIC "-//W3C//DTD SVG 20010904//EN"
 "http://www.w3.org/TR/2001/REC-SVG-20010904/DTD/svg10.dtd">
<svg version="1.0" xmlns="http://www.w3.org/2000/svg"
 width="96.000000pt" height="96.000000pt" viewBox="0 0 96.000000 96.000000"
 preserveAspectRatio="xMidYMid meet">

<g transform="translate(0.000000,96.000000) scale(0.100000,-0.100000)"
fill="#000000" stroke="none">
<path d="M322 727 c-88 -106 -187 -226 -221 -267 l-61 -75 21 -18 c12 -10 28
-21 35 -25 11 -6 8 -24 -11 -87 -14 -44 -25 -92 -25 -107 0 -49 18 -55 330
-108 30 -5 84 -8 120 -6 136 6 383 47 395 66 3 4 -15 50 -40 101 -25 51 -45
98 -45 104 0 6 22 24 50 40 27 17 50 34 50 39 0 5 -15 25 -32 46 -18 20 -60
70 -94 111 -33 41 -117 142 -186 226 l-126 152 -160 -192z m156 -17 l-3 -49
-55 35 c-30 19 -54 40 -52 46 2 7 27 39 55 72 l52 60 3 -58 c2 -31 2 -79 0
-106z m-54 -41 l59 -38 43 30 c23 16 48 29 54 29 17 0 -78 -79 -115 -96 -30
-13 -30 -13 25 -14 30 -1 64 -6 75 -11 14 -7 7 -8 -27 -4 -28 3 -48 1 -48 -5
0 -6 19 -10 41 -10 23 0 67 -12 100 -26 54 -24 59 -25 81 -10 35 25 47 18 15
-8 l-29 -23 38 -24 c21 -12 32 -25 25 -27 -6 -2 -40 14 -74 36 -85 56 -153 76
-230 70 -35 -3 -81 -15 -103 -26 l-41 -21 -44 30 c-24 16 -48 30 -54 32 -5 2
8 26 29 53 65 81 99 114 110 107 6 -4 38 -24 70 -44z m-176 -157 l43 -29 -42
-28 c-35 -25 -38 -30 -22 -36 11 -4 49 -29 84 -56 102 -77 179 -90 271 -45 21
11 34 14 28 7 -27 -33 -78 -45 -182 -45 -123 1 -207 17 -274 54 -95 52 -94 44
-23 130 34 42 65 76 68 76 3 0 25 -13 49 -28z m138 -28 c-24 -64 -6 -122 47
-148 24 -12 27 -16 12 -16 -24 0 -113 50 -138 78 -25 28 -15 53 31 80 44 26
56 27 48 6z m92 -17 c3 -12 -4 -20 -17 -24 -39 -10 -17 -53 26 -53 16 0 27 8
34 27 l10 27 22 -23 22 -22 -33 -30 c-32 -29 -73 -37 -100 -21 -14 10 -28 102
-18 127 8 22 50 16 54 -8z m142 -53 c0 -44 -55 -94 -102 -94 -20 1 -19 2 9 15
35 15 63 59 63 102 1 27 1 27 15 9 8 -11 15 -26 15 -32z m-120 16 c0 -5 -5
-10 -11 -10 -5 0 -7 5 -4 10 3 6 8 10 11 10 2 0 4 -4 4 -10z m215 -70 c-10
-11 -23 -20 -28 -20 -6 0 -2 9 8 20 10 11 23 20 28 20 6 0 2 -9 -8 -20z m-524
-60 c26 -15 26 -60 -1 -60 -13 0 -20 7 -20 20 0 24 -18 27 -26 5 -4 -9 5 -33
20 -53 30 -44 32 -59 10 -90 -18 -26 -50 -28 -82 -6 -29 20 -30 64 -2 64 13 0
20 -7 20 -19 0 -27 18 -37 27 -15 4 10 -2 33 -15 55 -24 42 -27 61 -12 90 12
21 50 25 81 9z m656 -91 c24 -51 40 -96 37 -100 -8 -14 -31 -10 -38 6 -9 24
-44 18 -48 -7 -2 -13 -11 -24 -20 -26 -16 -3 -18 7 -18 102 0 108 -1 106 40
115 3 0 24 -40 47 -90z m-537 -34 c0 -87 -3 -105 -15 -105 -8 0 -15 9 -15 19
0 20 -41 41 -47 25 -10 -29 -23 -38 -34 -27 -9 9 -8 23 6 60 46 120 53 133 80
133 l25 0 0 -105z m80 50 c0 -32 4 -45 14 -45 10 0 16 13 18 38 2 27 7 37 21
37 9 0 17 -3 17 -7 0 -5 0 -48 0 -98 0 -83 -1 -90 -20 -90 -17 0 -20 7 -20 46
0 38 -3 45 -17 42 -13 -2 -20 -16 -23 -43 -4 -29 -10 -41 -24 -43 -18 -4 -19
1 -12 94 8 107 10 114 32 114 10 0 14 -12 14 -45z m318 33 c5 -7 12 -33 16
-58 3 -25 8 -64 12 -87 5 -36 3 -43 -10 -43 -17 0 -20 5 -30 52 -4 16 -13 28
-22 28 -12 0 -15 -9 -12 -42 2 -33 -1 -43 -13 -46 -19 -3 -25 18 -35 131 l-7
77 45 0 c25 0 50 -6 56 -12z m-123 -98 c24 -103 17 -122 -26 -79 l-22 22 -23
-28 c-13 -16 -26 -26 -30 -22 -4 3 -1 41 5 84 20 124 20 124 49 121 24 -3 27
-10 47 -98z"/>
<path d="M794 200 c3 -14 6 -28 6 -32 0 -5 5 -8 11 -8 12 0 2 39 -13 55 -7 7
-9 2 -4 -15z"/>
<path d="M259 183 c-6 -16 -6 -30 -1 -35 6 -6 11 4 14 26 5 43 1 46 -13 9z"/>
<path d="M656 232 c-8 -13 5 -53 15 -46 12 7 12 41 0 49 -5 3 -12 2 -15 -3z"/>
<path d="M530 158 c0 -21 5 -38 10 -38 13 0 13 40 0 60 -7 11 -10 5 -10 -22z"/>
</g>
</svg>
